<svg xmlns="http://www.w3.org/2000/svg" xmlns:xlink="http://www.w3.org/1999/xlink" width="500" zoomAndPan="magnify" viewBox="0 0 375 374.999991" height="500" preserveAspectRatio="xMidYMid meet" version="1.0"><path fill="#101820" d="M 356.25 287.5 L 18.75 287.5 C 15.308594 287.5 12.5 284.691406 12.5 281.25 L 12.5 262.5 L 362.5 262.5 L 362.5 281.25 C 362.5 284.691406 359.691406 287.5 356.25 287.5 Z M 218.75 325 L 156.25 325 L 156.25 300 L 218.75 300 Z M 256.25 337.5 C 259.691406 337.5 262.5 340.308594 262.5 343.75 L 262.5 362.5 L 112.5 362.5 L 112.5 343.75 C 112.5 340.308594 115.308594 337.5 118.75 337.5 Z M 18.75 62.5 L 43.75 62.5 L 43.75 68.75 L 25 68.75 C 21.558594 68.75 18.75 71.558594 18.75 75 L 18.75 237.5 C 18.75 240.941406 21.558594 243.75 25 243.75 L 350 243.75 C 353.441406 243.75 356.25 240.941406 356.25 237.5 L 356.25 75 C 356.25 71.558594 353.441406 68.75 350 68.75 L 331.25 68.75 L 331.25 62.5 L 356.25 62.5 C 359.691406 62.5 362.5 65.308594 362.5 68.75 L 362.5 250 L 12.5 250 L 12.5 68.75 C 12.5 65.308594 15.308594 62.5 18.75 62.5 Z M 62.5 12.5 L 312.5 12.5 C 315.941406 12.5 318.75 15.308594 318.75 18.75 L 318.75 37.5 L 56.25 37.5 L 56.25 18.75 C 56.25 15.308594 59.058594 12.5 62.5 12.5 Z M 62.5 218.75 L 312.5 218.75 C 322.851562 218.75 331.25 210.351562 331.25 200 L 331.25 81.25 L 343.75 81.25 L 343.75 231.25 L 31.25 231.25 L 31.25 81.25 L 43.75 81.25 L 43.75 200 C 43.75 210.351562 52.148438 218.75 62.5 218.75 Z M 318.75 200 C 318.75 203.441406 315.941406 206.25 312.5 206.25 L 62.5 206.25 C 59.058594 206.25 56.25 203.441406 56.25 200 L 56.25 50 L 318.75 50 Z M 356.25 50 L 331.25 50 L 331.25 18.75 C 331.25 8.398438 322.851562 0 312.5 0 L 62.5 0 C 52.148438 0 43.75 8.398438 43.75 18.75 L 43.75 50 L 18.75 50 C 8.398438 50 0 58.398438 0 68.75 L 0 281.25 C 0 291.601562 8.398438 300 18.75 300 L 143.75 300 L 143.75 325 L 118.75 325 C 108.398438 325 100 333.398438 100 343.75 L 100 368.75 C 100 372.191406 102.808594 375 106.25 375 L 268.75 375 C 272.191406 375 275 372.191406 275 368.75 L 275 343.75 C 275 333.398438 266.601562 325 256.25 325 L 231.25 325 L 231.25 300 L 356.25 300 C 366.601562 300 375 291.601562 375 281.25 L 375 68.75 C 375 58.398438 366.601562 50 356.25 50 " fill-opacity="1" fill-rule="nonzero"/><path fill="#101820" d="M 331.25 268.75 L 318.75 268.75 C 315.308594 268.75 312.5 271.558594 312.5 275 C 312.5 278.441406 315.308594 281.25 318.75 281.25 L 331.25 281.25 C 334.691406 281.25 337.5 278.441406 337.5 275 C 337.5 271.558594 334.691406 268.75 331.25 268.75 " fill-opacity="1" fill-rule="nonzero"/><path fill="#101820" d="M 81.25 18.75 L 68.75 18.75 L 68.75 31.25 L 81.25 31.25 L 81.25 18.75 " fill-opacity="1" fill-rule="nonzero"/><path fill="#101820" d="M 106.25 18.75 L 93.75 18.75 L 93.75 31.25 L 106.25 31.25 L 106.25 18.75 " fill-opacity="1" fill-rule="nonzero"/><path fill="#101820" d="M 131.25 18.75 L 118.75 18.75 L 118.75 31.25 L 131.25 31.25 L 131.25 18.75 " fill-opacity="1" fill-rule="nonzero"/><path fill="#101820" d="M 100 75 L 112.5 75 C 115.941406 75 118.75 72.191406 118.75 68.75 C 118.75 65.308594 115.941406 62.5 112.5 62.5 L 100 62.5 C 96.558594 62.5 93.75 65.308594 93.75 68.75 C 93.75 72.191406 96.558594 75 100 75 " fill-opacity="1" fill-rule="nonzero"/><path fill="#101820" d="M 131.25 75 L 137.5 75 C 140.941406 75 143.75 72.191406 143.75 68.75 C 143.75 65.308594 140.941406 62.5 137.5 62.5 L 131.25 62.5 C 127.808594 62.5 125 65.308594 125 68.75 C 125 72.191406 127.808594 75 131.25 75 " fill-opacity="1" fill-rule="nonzero"/><path fill="#101820" d="M 100 156.25 L 112.5 156.25 C 115.941406 156.25 118.75 153.441406 118.75 150 C 118.75 146.558594 115.941406 143.75 112.5 143.75 L 100 143.75 C 96.558594 143.75 93.75 146.558594 93.75 150 C 93.75 153.441406 96.558594 156.25 100 156.25 " fill-opacity="1" fill-rule="nonzero"/><path fill="#101820" d="M 143.75 150 C 143.75 146.558594 140.941406 143.75 137.5 143.75 L 131.25 143.75 C 127.808594 143.75 125 146.558594 125 150 C 125 153.441406 127.808594 156.25 131.25 156.25 L 137.5 156.25 C 140.941406 156.25 143.75 153.441406 143.75 150 " fill-opacity="1" fill-rule="nonzero"/><path fill="#101820" d="M 106.25 87.5 C 106.25 90.941406 109.058594 93.75 112.5 93.75 L 150 93.75 C 153.441406 93.75 156.25 90.941406 156.25 87.5 C 156.25 84.058594 153.441406 81.25 150 81.25 L 112.5 81.25 C 109.058594 81.25 106.25 84.058594 106.25 87.5 " fill-opacity="1" fill-rule="nonzero"/><path fill="#101820" d="M 112.5 112.5 L 150 112.5 C 153.441406 112.5 156.25 109.691406 156.25 106.25 C 156.25 102.808594 153.441406 100 150 100 L 112.5 100 C 109.058594 100 106.25 102.808594 106.25 106.25 C 106.25 109.691406 109.058594 112.5 112.5 112.5 " fill-opacity="1" fill-rule="nonzero"/><path fill="#101820" d="M 175 112.5 L 250 112.5 C 253.441406 112.5 256.25 109.691406 256.25 106.25 C 256.25 102.808594 253.441406 100 250 100 L 175 100 C 171.558594 100 168.75 102.808594 168.75 106.25 C 168.75 109.691406 171.558594 112.5 175 112.5 " fill-opacity="1" fill-rule="nonzero"/><path fill="#101820" d="M 112.5 131.25 L 150 131.25 C 153.441406 131.25 156.25 128.441406 156.25 125 C 156.25 121.558594 153.441406 118.75 150 118.75 L 112.5 118.75 C 109.058594 118.75 106.25 121.558594 106.25 125 C 106.25 128.441406 109.058594 131.25 112.5 131.25 " fill-opacity="1" fill-rule="nonzero"/><path fill="#101820" d="M 175 131.25 L 275 131.25 C 278.441406 131.25 281.25 128.441406 281.25 125 C 281.25 121.558594 278.441406 118.75 275 118.75 L 175 118.75 C 171.558594 118.75 168.75 121.558594 168.75 125 C 168.75 128.441406 171.558594 131.25 175 131.25 " fill-opacity="1" fill-rule="nonzero"/><path fill="#101820" d="M 118.75 162.5 L 112.5 162.5 C 109.058594 162.5 106.25 165.308594 106.25 168.75 C 106.25 172.191406 109.058594 175 112.5 175 L 118.75 175 C 122.191406 175 125 172.191406 125 168.75 C 125 165.308594 122.191406 162.5 118.75 162.5 " fill-opacity="1" fill-rule="nonzero"/><path fill="#101820" d="M 193.75 162.5 L 143.75 162.5 C 140.308594 162.5 137.5 165.308594 137.5 168.75 C 137.5 172.191406 140.308594 175 143.75 175 L 193.75 175 C 197.191406 175 200 172.191406 200 168.75 C 200 165.308594 197.191406 162.5 193.75 162.5 " fill-opacity="1" fill-rule="nonzero"/><path fill="#101820" d="M 256.25 162.5 L 218.75 162.5 C 215.308594 162.5 212.5 165.308594 212.5 168.75 C 212.5 172.191406 215.308594 175 218.75 175 L 256.25 175 C 259.691406 175 262.5 172.191406 262.5 168.75 C 262.5 165.308594 259.691406 162.5 256.25 162.5 " fill-opacity="1" fill-rule="nonzero"/><path fill="#101820" d="M 118.75 181.25 L 112.5 181.25 C 109.058594 181.25 106.25 184.058594 106.25 187.5 C 106.25 190.941406 109.058594 193.75 112.5 193.75 L 118.75 193.75 C 122.191406 193.75 125 190.941406 125 187.5 C 125 184.058594 122.191406 181.25 118.75 181.25 " fill-opacity="1" fill-rule="nonzero"/><path fill="#101820" d="M 193.75 181.25 L 143.75 181.25 C 140.308594 181.25 137.5 184.058594 137.5 187.5 C 137.5 190.941406 140.308594 193.75 143.75 193.75 L 193.75 193.75 C 197.191406 193.75 200 190.941406 200 187.5 C 200 184.058594 197.191406 181.25 193.75 181.25 " fill-opacity="1" fill-rule="nonzero"/><path fill="#101820" d="M 231.25 181.25 L 218.75 181.25 C 215.308594 181.25 212.5 184.058594 212.5 187.5 C 212.5 190.941406 215.308594 193.75 218.75 193.75 L 231.25 193.75 C 234.691406 193.75 237.5 190.941406 237.5 187.5 C 237.5 184.058594 234.691406 181.25 231.25 181.25 " fill-opacity="1" fill-rule="nonzero"/><path fill="#101820" d="M 175 93.75 L 187.5 93.75 C 190.941406 93.75 193.75 90.941406 193.75 87.5 C 193.75 84.058594 190.941406 81.25 187.5 81.25 L 175 81.25 C 171.558594 81.25 168.75 84.058594 168.75 87.5 C 168.75 90.941406 171.558594 93.75 175 93.75 " fill-opacity="1" fill-rule="nonzero"/></svg>